<svg id="Capa_1" data-name="Capa 1" xmlns="http://www.w3.org/2000/svg" viewBox="0 0 47.94 45.85"><defs><style>.cls-1{fill:#e08686;}</style></defs><path class="cls-1" d="M26.28,2.49l5.41,11a2.58,2.58,0,0,0,1.95,1.41l12.09,1.76A2.58,2.58,0,0,1,47.16,21l-8.75,8.53a2.57,2.57,0,0,0-.74,2.29l2.06,12A2.58,2.58,0,0,1,36,46.59L25.17,40.91a2.55,2.55,0,0,0-2.4,0L12,46.59a2.58,2.58,0,0,1-3.74-2.72l2.06-12a2.57,2.57,0,0,0-.74-2.29L.78,21a2.58,2.58,0,0,1,1.43-4.4L14.3,14.85a2.58,2.58,0,0,0,1.95-1.41L21.66,2.49A2.57,2.57,0,0,1,26.28,2.49Z" transform="translate(0 -1.05)"/></svg>